<svg height="120" node-id="1" sillyvg="true" template-height="120" template-width="52" version="1.1" viewBox="0 0 52 120" width="52" xmlns="http://www.w3.org/2000/svg" xmlns:xlink="http://www.w3.org/1999/xlink"><defs node-id="22"></defs><g node-id="50"><path d="M 4.09 44.10 C 3.02 45.55 2.31 47.23 2.00 49.00 C 1.87 49.93 1.87 50.87 2.00 51.80 C 2.80 57.72 -2.93 102.33 2.00 111.21 C 2.42 111.95 2.92 112.65 3.48 113.29 C 5.16 115.15 7.18 116.04 11.18 117.29 C 14.11 118.31 17.12 119.10 20.18 119.64 C 24.26 120.18 28.39 120.18 32.47 119.64 C 36.15 119.31 39.78 118.57 43.29 117.43 C 45.40 116.84 47.30 115.66 48.77 114.03 C 49.31 113.41 49.77 112.73 50.16 112.00 C 53.87 104.31 52.54 57.54 50.16 48.59 C 49.74 47.07 49.19 45.58 48.53 44.15 C 48.53 44.15 48.00 43.00 47.50 42.17 C 45.13 38.30 28.77 40.45 14.00 40.84 C 11.60 40.91 6.51 41.00 4.09 44.10 Z" fill="#d52d3f" fill-rule="nonzero" group-id="1" node-id="26" stroke="none" target-height="81.880005" target-width="56.8" target-x="-2.93" target-y="38.3"></path><path d="M 45.29 97.87 C 45.29 96.67 45.46 91.66 45.90 81.64 C 46.59 65.93 48.35 54.80 44.09 50.71 C 42.08 48.86 40.31 46.74 38.85 44.43 C 38.02 43.11 37.35 42.67 37.64 42.29 C 38.46 41.18 45.02 41.66 48.12 44.58 C 48.90 45.32 49.43 46.19 50.33 50.58 C 50.89 53.05 51.30 55.56 51.54 58.09 C 52.07 67.31 51.95 76.53 52.15 85.09 C 52.15 87.01 52.27 89.62 52.35 94.09 C 52.36 99.08 51.89 104.05 50.94 108.95 C 50.66 110.57 49.97 112.10 48.94 113.39 C 47.59 114.99 45.87 116.25 43.94 117.06 C 43.19 117.40 41.02 118.38 40.52 117.98 C 40.02 117.58 42.11 115.36 43.14 114.15 C 46.75 109.78 45.65 105.31 45.29 97.87 Z" fill="#db434c" fill-rule="nonzero" group-id="1" node-id="28" stroke="none" target-height="77.2" target-width="15.010002" target-x="37.35" target-y="41.18"></path><path d="M 14.06 43.54 C 13.20 43.29 11.92 45.54 11.79 45.72 C 9.47 49.81 11.79 52.93 9.00 59.13 C 9.00 59.13 9.00 59.13 9.00 59.13 C 6.85 64.19 5.20 69.45 4.09 74.83 C 2.88 80.77 1.16 89.25 2.31 100.20 C 3.68 113.31 7.86 117.54 9.94 119.10 C 11.27 120.10 11.94 120.18 12.39 119.94 C 14.22 118.94 11.85 111.54 10.31 103.78 C 9.25 98.41 7.65 90.34 8.25 82.15 C 9.13 70.24 14.63 58.41 14.90 48.22 C 14.94 46.94 15.00 43.82 14.06 43.54 Z" fill="#ffffff" fill-rule="nonzero" group-id="1" node-id="30" stroke="none" target-height="76.89" target-width="13.84" target-x="1.16" target-y="43.29"></path><path d="M 45.26 37.63 C 45.26 41.62 36.75 44.85 26.25 44.85 C 15.75 44.85 7.24 41.62 7.24 37.63 C 7.24 33.64 15.75 30.41 26.25 30.41 C 36.75 30.41 45.26 33.64 45.26 37.63 Z" fill="#cccdcd" fill-rule="nonzero" group-id="1" node-id="32" stroke="none" target-height="14.439999" target-width="38.019997" target-x="7.24" target-y="30.41"></path><path d="M 6.38 36.65 C 5.73 36.93 5.79 39.72 7.23 41.75 C 8.18 42.94 9.46 43.83 10.91 44.30 C 13.32 45.29 15.87 45.89 18.46 46.09 C 21.78 46.53 25.11 46.79 28.46 46.85 C 33.46 46.62 38.41 45.76 43.20 44.30 C 44.59 44.01 45.81 43.18 46.60 42.00 C 46.90 41.42 47.08 40.80 47.14 40.15 C 47.21 39.48 47.31 37.50 46.60 37.15 C 45.66 36.73 44.31 39.79 41.50 41.68 C 40.56 42.31 39.30 42.93 32.44 43.38 C 22.78 44.01 18.37 43.25 16.30 42.81 C 14.39 42.51 12.55 41.83 10.91 40.81 C 8.00 38.93 7.05 36.37 6.38 36.65 Z" fill="#a1a9af" fill-rule="nonzero" group-id="1" node-id="34" stroke="none" target-height="10.48" target-width="41.58" target-x="5.73" target-y="36.37"></path><path d="M 6.00 39.65 C 5.35 39.37 5.43 36.57 6.89 34.56 C 7.46 33.76 8.34 32.96 10.59 32.03 C 13.00 31.06 15.55 30.47 18.14 30.29 C 21.46 29.87 24.80 29.64 28.14 29.60 C 33.14 29.86 38.08 30.75 42.86 32.25 C 44.24 32.54 45.46 33.36 46.24 34.54 C 46.54 35.11 46.71 35.74 46.76 36.39 C 46.83 37.06 46.91 39.05 46.21 39.39 C 45.26 39.80 43.93 36.74 41.14 34.82 C 40.20 34.18 38.94 33.56 32.14 33.06 C 22.48 32.37 18.07 33.06 15.99 33.52 C 14.07 33.81 12.24 34.50 10.59 35.52 C 7.62 37.38 6.70 39.93 6.00 39.65 Z" fill="#a1a9af" fill-rule="nonzero" group-id="1" node-id="36" stroke="none" target-height="10.33" target-width="41.56" target-x="5.35" target-y="29.6"></path><path d="M 31.49 38.59 C 31.49 39.67 29.67 40.55 27.42 40.55 C 25.17 40.55 23.35 39.67 23.35 38.59 C 23.35 37.51 25.17 36.63 27.42 36.63 C 29.67 36.63 31.49 37.51 31.49 38.59 Z" fill="#b7babd" fill-rule="nonzero" group-id="1" node-id="38" stroke="none" target-height="3.9199982" target-width="8.139999" target-x="23.35" target-y="36.63"></path><path d="M 27.32 0.11 C 27.80 -0.05 28.33 -0.03 28.80 0.17 C 31.55 1.35 30.15 8.22 29.69 19.58 C 29.18 32.31 30.31 39.58 27.42 40.58 C 26.79 40.75 26.13 40.67 25.56 40.36 C 22.46 38.69 25.00 31.45 25.56 19.47 C 26.00 8.45 24.50 1.10 27.32 0.11 Z" fill="#b1dadf" fill-rule="nonzero" group-id="1" node-id="40" stroke="none" target-height="40.8" target-width="9.09" target-x="22.46" target-y="-0.05"></path><path d="M 21.84 99.74 L 36.34 99.65 L 37.48 100.25 L 38.48 105.66 L 36.19 105.79 L 35.32 101.00 L 21.77 101.08 L 21.24 110.00 L 18.90 110.00 L 19.59 98.23 L 21.93 98.23 Z M 33.54 108.00 L 25.19 108.83 L 23.84 108.15 L 24.20 102.73 L 25.60 102.12 L 32.92 102.89 L 33.86 103.49 L 34.49 107.29 Z M 32.08 106.81 L 31.64 104.10 L 26.47 103.55 L 26.24 107.39 Z" fill="#ffffff" fill-rule="nonzero" group-id="1" node-id="42" stroke="none" target-height="11.769997" target-width="19.58" target-x="18.9" target-y="98.23"></path><path d="M 36.14 93.86 L 35.00 94.54 L 22.39 94.83 L 21.18 94.19 L 21.00 85.90 L 22.20 85.20 L 35.00 85.47 L 36.11 86.12 Z M 33.76 86.77 L 23.36 86.58 L 23.50 93.48 L 33.79 93.24 Z" fill="#ffffff" fill-rule="nonzero" group-id="1" node-id="44" stroke="none" target-height="9.630005" target-width="15.139999" target-x="21" target-y="85.2"></path><path d="M 21.67 71.60 L 36.18 71.52 L 37.31 72.11 L 38.31 77.53 L 36.00 77.65 L 35.11 72.84 L 21.56 72.93 L 21.03 81.86 L 18.69 81.86 L 19.38 70.10 L 21.72 70.10 Z M 33.37 79.89 L 25.00 80.73 L 23.64 80.05 L 24.00 74.63 L 25.40 74.01 L 32.72 74.79 L 33.66 75.39 L 34.30 79.18 Z M 31.91 78.70 L 31.47 76.00 L 26.30 75.45 L 26.08 79.30 Z" fill="#ffffff" fill-rule="nonzero" group-id="1" node-id="46" stroke="none" target-height="11.760002" target-width="19.62" target-x="18.69" target-y="70.1"></path><path d="M 28.87 60.80 L 33.87 60.52 L 34.76 60.71 L 38.64 62.91 L 37.00 63.84 L 33.51 61.84 L 29.00 62.12 L 29.22 66.12 L 28.00 66.80 L 20.43 66.55 L 19.35 65.93 L 18.16 57.00 L 20.50 56.91 L 21.50 65.27 L 26.80 65.45 L 26.61 62.26 L 22.55 62.48 L 22.32 61.16 L 26.53 60.93 L 26.28 56.93 L 28.62 56.93 Z M 36.73 57.15 L 31.30 59.40 L 29.94 58.34 L 35.37 56.07 Z M 37.94 66.40 L 36.64 67.50 L 30.37 65.09 L 31.65 64.00 Z" fill="#ffffff" fill-rule="nonzero" group-id="1" node-id="48" stroke="none" target-height="11.43" target-width="20.48" target-x="18.16" target-y="56.07"></path></g></svg>